<?xml version="1.0" encoding="UTF-8" standalone="no"?>
<!DOCTYPE svg PUBLIC "-//W3C//DTD SVG 1.1//EN"
 "http://www.w3.org/Graphics/SVG/1.1/DTD/svg11.dtd">
<!-- Generated by graphviz version 14.1.5 (20260411.2331)
 -->
<!-- Title: FarmhaniDeployment Pages: 1 -->
<svg width="1731pt" height="781pt"
 viewBox="0.00 0.00 1731.00 781.00" xmlns="http://www.w3.org/2000/svg" xmlns:xlink="http://www.w3.org/1999/xlink">
<g id="graph0" class="graph" transform="scale(1 1) rotate(0) translate(25.2 755.95)">
<title>FarmhaniDeployment</title>
<text xml:space="preserve" text-anchor="middle" x="120.88" y="-709.65" font-family="Malgun Gothic" font-size="18.00">Farm하니 v2 전체 배포 구성</text>
<g id="clust1" class="cluster">
<title>cluster_client</title>
<path fill="#fbfefc" stroke="#c9e7da" d="M20,-239C20,-239 176.67,-239 176.67,-239 182.67,-239 188.67,-245 188.67,-251 188.67,-251 188.67,-323 188.67,-323 188.67,-329 182.67,-335 176.67,-335 176.67,-335 20,-335 20,-335 14,-335 8,-329 8,-323 8,-323 8,-251 8,-251 8,-245 14,-239 20,-239"/>
<text xml:space="preserve" text-anchor="middle" x="64" y="-313.9" font-family="Malgun Gothic" font-size="18.00">사용자 환경</text>
</g>
<g id="clust2" class="cluster">
<title>cluster_vercel</title>
<path fill="#f6fcf8" stroke="#8bcbaf" d="M331.67,-232C331.67,-232 831.14,-232 831.14,-232 837.14,-232 843.14,-238 843.14,-244 843.14,-244 843.14,-331 843.14,-331 843.14,-337 837.14,-343 831.14,-343 831.14,-343 331.67,-343 331.67,-343 325.67,-343 319.67,-337 319.67,-331 319.67,-331 319.67,-244 319.67,-244 319.67,-238 325.67,-232 331.67,-232"/>
<text xml:space="preserve" text-anchor="middle" x="351.67" y="-321.9" font-family="Malgun Gothic" font-size="18.00">Vercel</text>
</g>
<g id="clust3" class="cluster">
<title>cluster_supabase</title>
<path fill="#f6fcf8" stroke="#70b996" d="M1038.26,-311C1038.26,-311 1206.18,-311 1206.18,-311 1212.18,-311 1218.18,-317 1218.18,-323 1218.18,-323 1218.18,-678 1218.18,-678 1218.18,-684 1212.18,-690 1206.18,-690 1206.18,-690 1038.26,-690 1038.26,-690 1032.26,-690 1026.26,-684 1026.26,-678 1026.26,-678 1026.26,-323 1026.26,-323 1026.26,-317 1032.26,-311 1038.26,-311"/>
<text xml:space="preserve" text-anchor="middle" x="1072.51" y="-668.9" font-family="Malgun Gothic" font-size="18.00">Supabase</text>
</g>
<g id="clust4" class="cluster">
<title>cluster_openai</title>
<path fill="#f7fbfe" stroke="#8cb8d8" d="M1046.14,-112C1046.14,-112 1198.31,-112 1198.31,-112 1204.31,-112 1210.31,-118 1210.31,-124 1210.31,-124 1210.31,-291 1210.31,-291 1210.31,-297 1204.31,-303 1198.31,-303 1198.31,-303 1046.14,-303 1046.14,-303 1040.14,-303 1034.14,-297 1034.14,-291 1034.14,-291 1034.14,-124 1034.14,-124 1034.14,-118 1040.14,-112 1046.14,-112"/>
<text xml:space="preserve" text-anchor="middle" x="1089.39" y="-281.9" font-family="Malgun Gothic" font-size="18.00">OpenAI API</text>
</g>
<g id="clust5" class="cluster">
<title>cluster_runpod</title>
<path fill="#fffdf6" stroke="#d2b76b" d="M1042.01,-8C1042.01,-8 1660.77,-8 1660.77,-8 1666.77,-8 1672.77,-14 1672.77,-20 1672.77,-20 1672.77,-92 1672.77,-92 1672.77,-98 1666.77,-104 1660.77,-104 1660.77,-104 1042.01,-104 1042.01,-104 1036.01,-104 1030.01,-98 1030.01,-92 1030.01,-92 1030.01,-20 1030.01,-20 1030.01,-14 1036.01,-8 1042.01,-8"/>
<text xml:space="preserve" text-anchor="middle" x="1154.26" y="-82.9" font-family="Malgun Gothic" font-size="18.00">RunPod GPU Pod · RTX 4090</text>
</g>
<g id="clust6" class="cluster">
<title>cluster_data</title>
<path fill="#fbfafe" stroke="#b8b8d8" d="M315.92,-530C315.92,-530 843.51,-530 843.51,-530 849.51,-530 855.51,-536 855.51,-542 855.51,-542 855.51,-629 855.51,-629 855.51,-635 849.51,-641 843.51,-641 843.51,-641 315.92,-641 315.92,-641 309.92,-641 303.92,-635 303.92,-629 303.92,-629 303.92,-542 303.92,-542 303.92,-536 309.92,-530 315.92,-530"/>
<text xml:space="preserve" text-anchor="middle" x="386.92" y="-619.9" font-family="Malgun Gothic" font-size="18.00">데이터 파이프라인</text>
</g>
<!-- user -->
<g id="node1" class="node">
<title>user</title>
<path fill="#e0f7eb" stroke="#9bcdb8" d="M168.67,-294.64C168.67,-294.64 28,-294.64 28,-294.64 22,-294.64 16,-288.64 16,-282.64 16,-282.64 16,-259.36 16,-259.36 16,-253.36 22,-247.36 28,-247.36 28,-247.36 168.67,-247.36 168.67,-247.36 174.67,-247.36 180.67,-253.36 180.67,-259.36 180.67,-259.36 180.67,-282.64 180.67,-282.64 180.67,-288.64 174.67,-294.64 168.67,-294.64"/>
<text xml:space="preserve" text-anchor="middle" x="98.34" y="-275.55" font-family="Malgun Gothic" font-size="11.00" fill="#153c31">사용자</text>
<text xml:space="preserve" text-anchor="middle" x="98.34" y="-260.55" font-family="Malgun Gothic" font-size="11.00" fill="#153c31">PC · 모바일 브라우저 · PWA</text>
</g>
<!-- frontend -->
<g id="node2" class="node">
<title>frontend</title>
<path fill="#d8f4e6" stroke="#9bcdb8" d="M475.84,-302.14C475.84,-302.14 339.67,-302.14 339.67,-302.14 333.67,-302.14 327.67,-296.14 327.67,-290.14 327.67,-290.14 327.67,-251.86 327.67,-251.86 327.67,-245.86 333.67,-239.86 339.67,-239.86 339.67,-239.86 475.84,-239.86 475.84,-239.86 481.84,-239.86 487.84,-245.86 487.84,-251.86 487.84,-251.86 487.84,-290.14 487.84,-290.14 487.84,-296.14 481.84,-302.14 475.84,-302.14"/>
<text xml:space="preserve" text-anchor="middle" x="407.76" y="-283.05" font-family="Malgun Gothic" font-size="11.00" fill="#153c31">Frontend</text>
<text xml:space="preserve" text-anchor="middle" x="407.76" y="-268.05" font-family="Malgun Gothic" font-size="11.00" fill="#153c31">React 19 · TypeScript · Vite</text>
<text xml:space="preserve" text-anchor="middle" x="407.76" y="-253.05" font-family="Malgun Gothic" font-size="11.00" fill="#153c31">정적 번들 · 반응형/PWA</text>
</g>
<!-- user&#45;&gt;frontend -->
<g id="edge5" class="edge">
<title>user&#45;&gt;frontend</title>
<path fill="none" stroke="#4b7f6d" d="M180.85,-271C180.85,-271 318.33,-271 318.33,-271"/>
<polygon fill="#4b7f6d" stroke="#4b7f6d" points="318.33,-273.63 325.83,-271 318.33,-268.38 318.33,-273.63"/>
<text xml:space="preserve" text-anchor="middle" x="246.3" y="-287.95" font-family="Malgun Gothic" font-size="9.00" fill="#315d4e"> HTTPS</text>
<text xml:space="preserve" text-anchor="middle" x="246.3" y="-275.2" font-family="Malgun Gothic" font-size="9.00" fill="#315d4e">화면 · 정적 자산</text>
</g>
<!-- backend -->
<g id="node3" class="node">
<title>backend</title>
<path fill="#c3efda" stroke="#9bcdb8" d="M823.14,-302.14C823.14,-302.14 704.22,-302.14 704.22,-302.14 698.22,-302.14 692.22,-296.14 692.22,-290.14 692.22,-290.14 692.22,-251.86 692.22,-251.86 692.22,-245.86 698.22,-239.86 704.22,-239.86 704.22,-239.86 823.14,-239.86 823.14,-239.86 829.14,-239.86 835.14,-245.86 835.14,-251.86 835.14,-251.86 835.14,-290.14 835.14,-290.14 835.14,-296.14 829.14,-302.14 823.14,-302.14"/>
<text xml:space="preserve" text-anchor="middle" x="763.68" y="-283.05" font-family="Malgun Gothic" font-size="11.00" fill="#153c31">Backend</text>
<text xml:space="preserve" text-anchor="middle" x="763.68" y="-268.05" font-family="Malgun Gothic" font-size="11.00" fill="#153c31">FastAPI · Pydantic</text>
<text xml:space="preserve" text-anchor="middle" x="763.68" y="-253.05" font-family="Malgun Gothic" font-size="11.00" fill="#153c31">API Router · LangGraph</text>
</g>
<!-- frontend&#45;&gt;backend -->
<g id="edge1" class="edge">
<title>frontend&#45;&gt;backend</title>
<path fill="none" stroke="#4b7f6d" d="M488.07,-271C488.07,-271 682.79,-271 682.79,-271"/>
<polygon fill="#4b7f6d" stroke="#4b7f6d" points="682.79,-273.63 690.29,-271 682.79,-268.38 682.79,-273.63"/>
<text xml:space="preserve" text-anchor="middle" x="591.72" y="-288.95" font-family="Malgun Gothic" font-size="9.00" fill="#315d4e"> HTTPS REST / SSE</text>
<text xml:space="preserve" text-anchor="middle" x="591.72" y="-276.2" font-family="Malgun Gothic" font-size="9.00" fill="#315d4e">Authorization: Bearer JWT</text>
</g>
<!-- auth -->
<g id="node4" class="node">
<title>auth</title>
<path fill="#f4fbf7" stroke="#9bcdb8" d="M1198.18,-460.64C1198.18,-460.64 1046.26,-460.64 1046.26,-460.64 1040.26,-460.64 1034.26,-454.64 1034.26,-448.64 1034.26,-448.64 1034.26,-425.36 1034.26,-425.36 1034.26,-419.36 1040.26,-413.36 1046.26,-413.36 1046.26,-413.36 1198.18,-413.36 1198.18,-413.36 1204.18,-413.36 1210.18,-419.36 1210.18,-425.36 1210.18,-425.36 1210.18,-448.64 1210.18,-448.64 1210.18,-454.64 1204.18,-460.64 1198.18,-460.64"/>
<text xml:space="preserve" text-anchor="middle" x="1122.22" y="-441.55" font-family="Malgun Gothic" font-size="11.00" fill="#153c31">Auth</text>
<text xml:space="preserve" text-anchor="middle" x="1122.22" y="-426.55" font-family="Malgun Gothic" font-size="11.00" fill="#153c31">회원가입 · 로그인 · JWT/JWKS</text>
</g>
<!-- frontend&#45;&gt;auth -->
<g id="edge6" class="edge">
<title>frontend&#45;&gt;auth</title>
<path fill="none" stroke="#4b7f6d" d="M407.77,-302.49C407.77,-352.6 407.77,-444.88 407.77,-444.88 407.77,-444.88 1024.88,-444.88 1024.88,-444.88"/>
<polygon fill="#4b7f6d" stroke="#4b7f6d" points="1024.88,-447.51 1032.38,-444.88 1024.88,-442.26 1024.88,-447.51"/>
<text xml:space="preserve" text-anchor="middle" x="763.68" y="-370.2" font-family="Malgun Gothic" font-size="9.00" fill="#315d4e"> Auth REST</text>
</g>
<!-- backend&#45;&gt;auth -->
<g id="edge7" class="edge">
<title>backend&#45;&gt;auth</title>
<path fill="none" stroke="#4b7f6d" d="M787.77,-302.62C787.77,-348.76 787.77,-429.12 787.77,-429.12 787.77,-429.12 1024.9,-429.12 1024.9,-429.12"/>
<polygon fill="#4b7f6d" stroke="#4b7f6d" points="1024.9,-431.75 1032.4,-429.12 1024.9,-426.5 1024.9,-431.75"/>
<text xml:space="preserve" text-anchor="middle" x="940.89" y="-335.2" font-family="Malgun Gothic" font-size="9.00" fill="#315d4e"> JWT/JWKS 검증</text>
</g>
<!-- db -->
<g id="node5" class="node">
<title>db</title>
<path fill="#f4fbf7" stroke="#9bcdb8" d="M1176.81,-649.14C1176.81,-649.14 1067.64,-649.14 1067.64,-649.14 1061.64,-649.14 1055.64,-643.14 1055.64,-637.14 1055.64,-637.14 1055.64,-598.86 1055.64,-598.86 1055.64,-592.86 1061.64,-586.86 1067.64,-586.86 1067.64,-586.86 1176.81,-586.86 1176.81,-586.86 1182.81,-586.86 1188.81,-592.86 1188.81,-598.86 1188.81,-598.86 1188.81,-637.14 1188.81,-637.14 1188.81,-643.14 1182.81,-649.14 1176.81,-649.14"/>
<text xml:space="preserve" text-anchor="middle" x="1122.22" y="-630.05" font-family="Malgun Gothic" font-size="11.00" fill="#153c31">PostgreSQL + RLS</text>
<text xml:space="preserve" text-anchor="middle" x="1122.22" y="-615.05" font-family="Malgun Gothic" font-size="11.00" fill="#153c31">사용자 · 식물 · 텃밭</text>
<text xml:space="preserve" text-anchor="middle" x="1122.22" y="-600.05" font-family="Malgun Gothic" font-size="11.00" fill="#153c31">관리 기록 · 상담 이력</text>
</g>
<!-- backend&#45;&gt;db -->
<g id="edge8" class="edge">
<title>backend&#45;&gt;db</title>
<path fill="none" stroke="#4b7f6d" d="M835.45,-288.81C884.54,-288.81 940.77,-288.81 940.77,-288.81 940.77,-288.81 940.77,-624.64 940.77,-624.64 940.77,-624.64 1046.16,-624.64 1046.16,-624.64"/>
<polygon fill="#4b7f6d" stroke="#4b7f6d" points="1046.16,-627.27 1053.66,-624.64 1046.16,-622.02 1046.16,-627.27"/>
<text xml:space="preserve" text-anchor="middle" x="940.89" y="-524.2" font-family="Malgun Gothic" font-size="9.00" fill="#315d4e"> CRUD · 소유권 검증</text>
</g>
<!-- storage -->
<g id="node6" class="node">
<title>storage</title>
<path fill="#f4fbf7" stroke="#9bcdb8" d="M1185.43,-381.14C1185.43,-381.14 1059.01,-381.14 1059.01,-381.14 1053.01,-381.14 1047.01,-375.14 1047.01,-369.14 1047.01,-369.14 1047.01,-330.86 1047.01,-330.86 1047.01,-324.86 1053.01,-318.86 1059.01,-318.86 1059.01,-318.86 1185.43,-318.86 1185.43,-318.86 1191.43,-318.86 1197.43,-324.86 1197.43,-330.86 1197.43,-330.86 1197.43,-369.14 1197.43,-369.14 1197.43,-375.14 1191.43,-381.14 1185.43,-381.14"/>
<text xml:space="preserve" text-anchor="middle" x="1122.22" y="-362.05" font-family="Malgun Gothic" font-size="11.00" fill="#153c31">Storage</text>
<text xml:space="preserve" text-anchor="middle" x="1122.22" y="-347.05" font-family="Malgun Gothic" font-size="11.00" fill="#153c31">식물 · 텃밭 · 상담 이미지</text>
<text xml:space="preserve" text-anchor="middle" x="1122.22" y="-332.05" font-family="Malgun Gothic" font-size="11.00" fill="#153c31">Signed URL</text>
</g>
<!-- backend&#45;&gt;storage -->
<g id="edge9" class="edge">
<title>backend&#45;&gt;storage</title>
<path fill="none" stroke="#4b7f6d" d="M835.28,-275.47C939.78,-275.47 1121.77,-275.47 1121.77,-275.47 1121.77,-275.47 1121.77,-309.38 1121.77,-309.38"/>
<polygon fill="#4b7f6d" stroke="#4b7f6d" points="1119.15,-309.38 1121.77,-316.88 1124.4,-309.38 1119.15,-309.38"/>
<text xml:space="preserve" text-anchor="middle" x="940.89" y="-285.2" font-family="Malgun Gothic" font-size="9.00" fill="#315d4e"> 업로드 · Signed URL</text>
</g>
<!-- vector -->
<g id="node7" class="node">
<title>vector</title>
<path fill="#e0f7eb" stroke="#9bcdb8" d="M1183.93,-555.14C1183.93,-555.14 1060.51,-555.14 1060.51,-555.14 1054.51,-555.14 1048.51,-549.14 1048.51,-543.14 1048.51,-543.14 1048.51,-504.86 1048.51,-504.86 1048.51,-498.86 1054.51,-492.86 1060.51,-492.86 1060.51,-492.86 1183.93,-492.86 1183.93,-492.86 1189.93,-492.86 1195.93,-498.86 1195.93,-504.86 1195.93,-504.86 1195.93,-543.14 1195.93,-543.14 1195.93,-549.14 1189.93,-555.14 1183.93,-555.14"/>
<text xml:space="preserve" text-anchor="middle" x="1122.22" y="-536.05" font-family="Malgun Gothic" font-size="11.00" fill="#153c31">pgvector / RPC</text>
<text xml:space="preserve" text-anchor="middle" x="1122.22" y="-521.05" font-family="Malgun Gothic" font-size="11.00" fill="#153c31">rag_sources · rag_chunks</text>
<text xml:space="preserve" text-anchor="middle" x="1122.22" y="-506.05" font-family="Malgun Gothic" font-size="11.00" fill="#153c31">PSIS 농약 청크</text>
</g>
<!-- backend&#45;&gt;vector -->
<g id="edge10" class="edge">
<title>backend&#45;&gt;vector</title>
<path fill="none" stroke="#4b7f6d" d="M739.77,-302.45C739.77,-368.44 739.77,-515.36 739.77,-515.36 739.77,-515.36 1039.01,-515.36 1039.01,-515.36"/>
<polygon fill="#4b7f6d" stroke="#4b7f6d" points="1039.01,-517.99 1046.51,-515.36 1039.01,-512.74 1039.01,-517.99"/>
<text xml:space="preserve" text-anchor="middle" x="940.89" y="-424.2" font-family="Malgun Gothic" font-size="9.00" fill="#315d4e"> Vector RPC · Keyword Search</text>
</g>
<!-- chat -->
<g id="node8" class="node">
<title>chat</title>
<path fill="#f4fbf7" stroke="#9bcdb8" d="M1190.31,-167.64C1190.31,-167.64 1054.14,-167.64 1054.14,-167.64 1048.14,-167.64 1042.14,-161.64 1042.14,-155.64 1042.14,-155.64 1042.14,-132.36 1042.14,-132.36 1042.14,-126.36 1048.14,-120.36 1054.14,-120.36 1054.14,-120.36 1190.31,-120.36 1190.31,-120.36 1196.31,-120.36 1202.31,-126.36 1202.31,-132.36 1202.31,-132.36 1202.31,-155.64 1202.31,-155.64 1202.31,-161.64 1196.31,-167.64 1190.31,-167.64"/>
<text xml:space="preserve" text-anchor="middle" x="1122.22" y="-148.55" font-family="Malgun Gothic" font-size="11.00" fill="#153c31">Chat / Vision</text>
<text xml:space="preserve" text-anchor="middle" x="1122.22" y="-133.55" font-family="Malgun Gothic" font-size="11.00" fill="#153c31">GPT&#45;5.4 · GPT&#45;5.5 · GPT&#45;5.6</text>
</g>
<!-- backend&#45;&gt;chat -->
<g id="edge11" class="edge">
<title>backend&#45;&gt;chat</title>
<path fill="none" stroke="#3e7cb1" d="M787.77,-239.61C787.77,-202 787.77,-144 787.77,-144 787.77,-144 1032.67,-144 1032.67,-144"/>
<polygon fill="#3e7cb1" stroke="#3e7cb1" points="1032.67,-146.63 1040.17,-144 1032.67,-141.38 1032.67,-146.63"/>
<text xml:space="preserve" text-anchor="middle" x="940.89" y="-166.2" font-family="Malgun Gothic" font-size="9.00" fill="#315d4e"> 선택 모델 · Vision</text>
</g>
<!-- embed -->
<g id="node9" class="node">
<title>embed</title>
<path fill="#f4fbf7" stroke="#9bcdb8" d="M1184.31,-262.14C1184.31,-262.14 1060.14,-262.14 1060.14,-262.14 1054.14,-262.14 1048.14,-256.14 1048.14,-250.14 1048.14,-250.14 1048.14,-211.86 1048.14,-211.86 1048.14,-205.86 1054.14,-199.86 1060.14,-199.86 1060.14,-199.86 1184.31,-199.86 1184.31,-199.86 1190.31,-199.86 1196.31,-205.86 1196.31,-211.86 1196.31,-211.86 1196.31,-250.14 1196.31,-250.14 1196.31,-256.14 1190.31,-262.14 1184.31,-262.14"/>
<text xml:space="preserve" text-anchor="middle" x="1122.22" y="-243.05" font-family="Malgun Gothic" font-size="11.00" fill="#153c31">Embedding</text>
<text xml:space="preserve" text-anchor="middle" x="1122.22" y="-228.05" font-family="Malgun Gothic" font-size="11.00" fill="#153c31">text&#45;embedding&#45;3&#45;small</text>
<text xml:space="preserve" text-anchor="middle" x="1122.22" y="-213.05" font-family="Malgun Gothic" font-size="11.00" fill="#153c31">1,536 dimensions</text>
</g>
<!-- backend&#45;&gt;embed -->
<g id="edge12" class="edge">
<title>backend&#45;&gt;embed</title>
<path fill="none" stroke="#3e7cb1" d="M835.37,-247.29C835.37,-247.29 1038.86,-247.29 1038.86,-247.29"/>
<polygon fill="#3e7cb1" stroke="#3e7cb1" points="1038.86,-249.91 1046.36,-247.29 1038.86,-244.66 1038.86,-249.91"/>
<text xml:space="preserve" text-anchor="middle" x="940.89" y="-235.2" font-family="Malgun Gothic" font-size="9.00" fill="#315d4e"> 검색 질의 임베딩</text>
</g>
<!-- proxy -->
<g id="node10" class="node">
<title>proxy</title>
<path fill="#fff4cf" stroke="#9bcdb8" d="M1194.43,-63.64C1194.43,-63.64 1050.01,-63.64 1050.01,-63.64 1044.01,-63.64 1038.01,-57.64 1038.01,-51.64 1038.01,-51.64 1038.01,-28.36 1038.01,-28.36 1038.01,-22.36 1044.01,-16.36 1050.01,-16.36 1050.01,-16.36 1194.43,-16.36 1194.43,-16.36 1200.43,-16.36 1206.43,-22.36 1206.43,-28.36 1206.43,-28.36 1206.43,-51.64 1206.43,-51.64 1206.43,-57.64 1200.43,-63.64 1194.43,-63.64"/>
<text xml:space="preserve" text-anchor="middle" x="1122.22" y="-44.55" font-family="Malgun Gothic" font-size="11.00" fill="#153c31">OpenAI 호환 보안 프록시</text>
<text xml:space="preserve" text-anchor="middle" x="1122.22" y="-29.55" font-family="Malgun Gothic" font-size="11.00" fill="#153c31">HTTPS · Bearer Token · :8000</text>
</g>
<!-- backend&#45;&gt;proxy -->
<g id="edge13" class="edge">
<title>backend&#45;&gt;proxy</title>
<path fill="none" stroke="#b58418" stroke-dasharray="5,2" d="M739.77,-239.36C739.77,-176.1 739.77,-40 739.77,-40 739.77,-40 1028.8,-40 1028.8,-40"/>
<polygon fill="#b58418" stroke="#b58418" points="1028.8,-42.63 1036.3,-40 1028.8,-37.38 1028.8,-42.63"/>
<text xml:space="preserve" text-anchor="middle" x="940.89" y="-95.95" font-family="Malgun Gothic" font-size="9.00" fill="#315d4e"> Local 선택 또는 Fallback</text>
<text xml:space="preserve" text-anchor="middle" x="940.89" y="-83.2" font-family="Malgun Gothic" font-size="9.00" fill="#315d4e">/v1/chat/completions</text>
</g>
<!-- ollama -->
<g id="node11" class="node">
<title>ollama</title>
<path fill="#f4fbf7" stroke="#9bcdb8" d="M1411.6,-63.64C1411.6,-63.64 1334.68,-63.64 1334.68,-63.64 1328.68,-63.64 1322.68,-57.64 1322.68,-51.64 1322.68,-51.64 1322.68,-28.36 1322.68,-28.36 1322.68,-22.36 1328.68,-16.36 1334.68,-16.36 1334.68,-16.36 1411.6,-16.36 1411.6,-16.36 1417.6,-16.36 1423.6,-22.36 1423.6,-28.36 1423.6,-28.36 1423.6,-51.64 1423.6,-51.64 1423.6,-57.64 1417.6,-63.64 1411.6,-63.64"/>
<text xml:space="preserve" text-anchor="middle" x="1373.14" y="-44.55" font-family="Malgun Gothic" font-size="11.00" fill="#153c31">Ollama API</text>
<text xml:space="preserve" text-anchor="middle" x="1373.14" y="-29.55" font-family="Malgun Gothic" font-size="11.00" fill="#153c31">127.0.0.1:11434</text>
</g>
<!-- proxy&#45;&gt;ollama -->
<g id="edge2" class="edge">
<title>proxy&#45;&gt;ollama</title>
<path fill="none" stroke="#4b7f6d" d="M1206.82,-40C1206.82,-40 1313.53,-40 1313.53,-40"/>
<polygon fill="#4b7f6d" stroke="#4b7f6d" points="1313.53,-42.63 1321.03,-40 1313.53,-37.38 1313.53,-42.63"/>
<text xml:space="preserve" text-anchor="middle" x="1266.43" y="-52.2" font-family="Malgun Gothic" font-size="9.00" fill="#315d4e"> 내부 HTTP</text>
</g>
<!-- qwen -->
<g id="node12" class="node">
<title>qwen</title>
<path fill="#fff0bd" stroke="#9bcdb8" d="M1652.77,-63.64C1652.77,-63.64 1543.6,-63.64 1543.6,-63.64 1537.6,-63.64 1531.6,-57.64 1531.6,-51.64 1531.6,-51.64 1531.6,-28.36 1531.6,-28.36 1531.6,-22.36 1537.6,-16.36 1543.6,-16.36 1543.6,-16.36 1652.77,-16.36 1652.77,-16.36 1658.77,-16.36 1664.77,-22.36 1664.77,-28.36 1664.77,-28.36 1664.77,-51.64 1664.77,-51.64 1664.77,-57.64 1658.77,-63.64 1652.77,-63.64"/>
<text xml:space="preserve" text-anchor="middle" x="1598.19" y="-44.55" font-family="Malgun Gothic" font-size="11.00" fill="#153c31">Qwen3&#45;VL 4B Instruct</text>
<text xml:space="preserve" text-anchor="middle" x="1598.19" y="-29.55" font-family="Malgun Gothic" font-size="11.00" fill="#153c31">텍스트 · 이미지</text>
</g>
<!-- ollama&#45;&gt;qwen -->
<g id="edge3" class="edge">
<title>ollama&#45;&gt;qwen</title>
<path fill="none" stroke="#4b7f6d" d="M1423.93,-40C1423.93,-40 1522.34,-40 1522.34,-40"/>
<polygon fill="#4b7f6d" stroke="#4b7f6d" points="1522.34,-42.63 1529.84,-40 1522.34,-37.38 1522.34,-42.63"/>
<text xml:space="preserve" text-anchor="middle" x="1477.6" y="-52.2" font-family="Malgun Gothic" font-size="9.00" fill="#315d4e"> 모델 실행</text>
</g>
<!-- sources -->
<g id="node13" class="node">
<title>sources</title>
<path fill="#f4fbf7" stroke="#9bcdb8" d="M491.59,-600.14C491.59,-600.14 323.92,-600.14 323.92,-600.14 317.92,-600.14 311.92,-594.14 311.92,-588.14 311.92,-588.14 311.92,-549.86 311.92,-549.86 311.92,-543.86 317.92,-537.86 323.92,-537.86 323.92,-537.86 491.59,-537.86 491.59,-537.86 497.59,-537.86 503.59,-543.86 503.59,-549.86 503.59,-549.86 503.59,-588.14 503.59,-588.14 503.59,-594.14 497.59,-600.14 491.59,-600.14"/>
<text xml:space="preserve" text-anchor="middle" x="407.76" y="-581.05" font-family="Malgun Gothic" font-size="11.00" fill="#153c31">공식·공공·검수 출처</text>
<text xml:space="preserve" text-anchor="middle" x="407.76" y="-566.05" font-family="Malgun Gothic" font-size="11.00" fill="#153c31">농사로 · NCPMS · PSIS · AI Hub</text>
<text xml:space="preserve" text-anchor="middle" x="407.76" y="-551.05" font-family="Malgun Gothic" font-size="11.00" fill="#153c31">국립수목원/KPNI · 선별 해외자료</text>
</g>
<!-- pipeline -->
<g id="node14" class="node">
<title>pipeline</title>
<path fill="#eeeafb" stroke="#9bcdb8" d="M835.51,-593.64C835.51,-593.64 691.84,-593.64 691.84,-593.64 685.84,-593.64 679.84,-587.64 679.84,-581.64 679.84,-581.64 679.84,-558.36 679.84,-558.36 679.84,-552.36 685.84,-546.36 691.84,-546.36 691.84,-546.36 835.51,-546.36 835.51,-546.36 841.51,-546.36 847.51,-552.36 847.51,-558.36 847.51,-558.36 847.51,-581.64 847.51,-581.64 847.51,-587.64 841.51,-593.64 835.51,-593.64"/>
<text xml:space="preserve" text-anchor="middle" x="763.68" y="-574.55" font-family="Malgun Gothic" font-size="11.00" fill="#153c31">수집 → 번역/정규화 → 검증</text>
<text xml:space="preserve" text-anchor="middle" x="763.68" y="-559.55" font-family="Malgun Gothic" font-size="11.00" fill="#153c31">청킹 → 임베딩 → 적재</text>
</g>
<!-- sources&#45;&gt;pipeline -->
<g id="edge4" class="edge">
<title>sources&#45;&gt;pipeline</title>
<path fill="none" stroke="#4b7f6d" d="M504.07,-570C504.07,-570 670.39,-570 670.39,-570"/>
<polygon fill="#4b7f6d" stroke="#4b7f6d" points="670.39,-572.63 677.89,-570 670.39,-567.38 670.39,-572.63"/>
<text xml:space="preserve" text-anchor="middle" x="591.72" y="-574.2" font-family="Malgun Gothic" font-size="9.00" fill="#315d4e"> API · CSV · HWPX · JSONL</text>
</g>
<!-- pipeline&#45;&gt;db -->
<g id="edge16" class="edge">
<title>pipeline&#45;&gt;db</title>
<path fill="none" stroke="#6a6a9f" d="M847.63,-571C953.47,-571 1121.77,-571 1121.77,-571 1121.77,-571 1121.77,-577.38 1121.77,-577.38"/>
<polygon fill="#6a6a9f" stroke="#6a6a9f" points="1119.15,-577.38 1121.77,-584.88 1124.4,-577.38 1119.15,-577.38"/>
<text xml:space="preserve" text-anchor="middle" x="940.89" y="-624.2" font-family="Malgun Gothic" font-size="9.00" fill="#315d4e"> 식물 카탈로그/별칭 적재</text>
</g>
<!-- pipeline&#45;&gt;vector -->
<g id="edge15" class="edge">
<title>pipeline&#45;&gt;vector</title>
<path fill="none" stroke="#6a6a9f" d="M847.74,-550.75C847.74,-550.75 1039.1,-550.75 1039.1,-550.75"/>
<polygon fill="#6a6a9f" stroke="#6a6a9f" points="1039.1,-553.38 1046.6,-550.75 1039.1,-548.13 1039.1,-553.38"/>
<text xml:space="preserve" text-anchor="middle" x="940.89" y="-574.2" font-family="Malgun Gothic" font-size="9.00" fill="#315d4e"> Service Role 적재</text>
</g>
<!-- pipeline&#45;&gt;embed -->
<g id="edge14" class="edge">
<title>pipeline&#45;&gt;embed</title>
<path fill="none" stroke="#6a6a9f" d="M841.77,-546.04C841.77,-472.47 841.77,-254.71 841.77,-254.71 841.77,-254.71 1038.79,-254.71 1038.79,-254.71"/>
<polygon fill="#6a6a9f" stroke="#6a6a9f" points="1038.79,-257.34 1046.29,-254.71 1038.79,-252.09 1038.79,-257.34"/>
<text xml:space="preserve" text-anchor="middle" x="940.89" y="-474.2" font-family="Malgun Gothic" font-size="9.00" fill="#315d4e"> 배치 임베딩</text>
</g>
</g>
</svg>
